<svg xmlns="http://www.w3.org/2000/svg" viewBox="0 0 300 72" fill="none" role="img" aria-label="Coabana">
  <!-- glifo: sol, palma y ola -->
  <circle cx="42" cy="18" r="7.5" fill="#ff8f6b"/>
  <path d="M28 56c0-12-1.2-22-2.4-29" stroke="#2fd6c3" stroke-width="4" stroke-linecap="round"/>
  <path d="M25.5 27c-7.5-5-15-5-20-2 7.5 1.2 13 3.5 19 7" stroke="#2fd6c3" stroke-width="3.4" stroke-linecap="round" fill="none"/>
  <path d="M25.5 27c-2.4-8.5-8.6-12.5-15-12.5 5.4 4.4 8.6 9.5 11.8 15" stroke="#2fd6c3" stroke-width="3.4" stroke-linecap="round" fill="none"/>
  <path d="M25.5 27c2.4-7.5 8.6-10.8 16-9.5-6.4 3.2-9.6 7.3-12.8 11.7" stroke="#2fd6c3" stroke-width="3.4" stroke-linecap="round" fill="none"/>
  <path d="M25.5 27c7.5-2.4 15 0 19.5 5.4-7.5-1.2-14-1.2-19.5-1.2" stroke="#2fd6c3" stroke-width="3.4" stroke-linecap="round" fill="none"/>
  <path d="M8 56c4.5-3.4 9-3.4 13.5 0s9 3.4 13.5 0 9-3.4 13.5 0 9 3.4 13.5 0" stroke="#4cc9f0" stroke-width="3.2" stroke-linecap="round" fill="none"/>
  <!-- wordmark -->
  <text x="76" y="47" font-family="Space Grotesk, Segoe UI, system-ui, sans-serif" font-size="34" font-weight="700" letter-spacing="0.5" fill="#eaf4f4">coabana</text>
</svg>
